<?xml version="1.0" encoding="UTF-8" standalone="no"?>
<!-- Created with Inkscape (http://www.inkscape.org/) -->

<svg
   xmlns:dc="http://purl.org/dc/elements/1.1/"
   xmlns:cc="http://creativecommons.org/ns#"
   xmlns:rdf="http://www.w3.org/1999/02/22-rdf-syntax-ns#"
   xmlns:svg="http://www.w3.org/2000/svg"
   xmlns="http://www.w3.org/2000/svg"
   xmlns:sodipodi="http://sodipodi.sourceforge.net/DTD/sodipodi-0.dtd"
   xmlns:inkscape="http://www.inkscape.org/namespaces/inkscape"
   width="370.00003"
   height="369.99979"
   id="svg4120"
   version="1.1"
   inkscape:version="0.48.4 r9939"
   sodipodi:docname="lilie_hp.svg">
  <defs
     id="defs4122" />
  <sodipodi:namedview
     id="base"
     pagecolor="#ffffff"
     bordercolor="#666666"
     borderopacity="1.0"
     inkscape:pageopacity="0.0"
     inkscape:pageshadow="2"
     inkscape:zoom="2.1317996"
     inkscape:cx="184.78059"
     inkscape:cy="184.73843"
     inkscape:document-units="px"
     inkscape:current-layer="layer1"
     showgrid="false"
     fit-margin-top="10"
     fit-margin-left="10"
     fit-margin-right="10"
     fit-margin-bottom="10"
     inkscape:window-width="1366"
     inkscape:window-height="706"
     inkscape:window-x="-8"
     inkscape:window-y="-8"
     inkscape:window-maximized="1" />
  <metadata
     id="metadata4125">
    <rdf:RDF>
      <cc:Work
         rdf:about="">
        <dc:format>image/svg+xml</dc:format>
        <dc:type
           rdf:resource="http://purl.org/dc/dcmitype/StillImage" />
        <dc:title />
      </cc:Work>
    </rdf:RDF>
  </metadata>
  <g
     inkscape:label="Ebene 1"
     inkscape:groupmode="layer"
     id="layer1"
     transform="translate(1244.78,592.90264)">
    <g
       id="g4227"
       transform="matrix(1.0012587,0,0,1.0015161,1.5542487,0.35310277)">
      <path
         inkscape:connector-curvature="0"
         id="path2999"
         d="m -1234.645,-407.63782 c 0,-96.39 78.21,-174.6 174.69,-174.6 96.39,0 174.6,78.21 174.6,174.6 0,96.39 -78.21,174.6 -174.6,174.6 -96.48,0 -174.69,-78.21 -174.69,-174.6 z"
         style="fill:#000080;stroke:#000080;stroke-width:0.27000001" />
      <path
         inkscape:connector-curvature="0"
         id="path3003"
         d="m -1059.955,-268.40782 -29.34,-36.09 c 6.39,-8.82 9.81,-15.75 12.42,-25.2 1.26,-4.41 2.43,-12.06 2.34,-13.77 0,0.09 -2.88,0 -2.88,0 -1.08,10.53 -6.93,25.92 -14.85,35.64 0,0 -11.43,-13.77 -12.78,-15.48 2.16,-1.62 11.61,-13.59 11.97,-18.27 0.09,-1.53 -6.03,-1.08 -6.03,-9.54 0,-11.16 8.1,-7.2 8.01,-13.68 -0.09,-5.4 -4.5,-9.45 -10.26,-9.45 -5.4,0 -7.65,6.03 -7.47,9.81 0.27,6.48 0.18,8.91 0.18,9.63 0,4.95 -2.25,14.31 -9.09,14.31 -3.06,0 -8.01,-8.19 -45,-53.1 l 43.47,-52.02 c 26.91,10.62 42.48,47.7 42.48,73.89 l 0,11.61 2.43,0 c 0.45,-4.59 0.09,-17.91 0.09,-17.91 -1.17,-29.97 -16.38,-60.48 -40.23,-73.62 l 54.54,-66.42 c 54.45,66.42 54.45,66.42 54.45,66.42 -23.22,14.04 -39.78,46.17 -39.6,75.69 0,0 -0.63,9.9 0.27,15.84 l 2.52,0 c -0.72,-6.57 -0.18,-13.77 -0.18,-13.77 0.45,-27.09 13.32,-59.94 42.39,-71.82 l 42.84,52.11 c -36.99,44.82 -42.57,53.1 -45.63,53.1 -6.84,0 -8.46,-9.36 -8.46,-14.22 0,-0.81 -0.09,-3.24 0.18,-9.72 0.18,-3.69 -2.07,-9.81 -7.47,-9.81 -5.76,0 -10.17,4.05 -10.26,9.54 -0.09,6.48 8.01,2.52 8.01,13.59 0,8.55 -6.12,8.01 -6.03,9.54 0.36,4.68 9.81,16.65 11.97,18.27 -1.26,1.71 -12.96,15.48 -12.96,15.48 -7.56,-10.17 -12.33,-23.85 -13.59,-35.64 l -2.61,0 c 0,0 0.54,6.66 1.8,11.16 2.52,9.45 5.22,17.46 11.61,27.81 l -29.25,36.09 0,0 z"
         style="fill:#ffd500;stroke:none" />
      <path
         inkscape:connector-curvature="0"
         id="path3005"
         d="m -1089.205,-356.15782 58.41,0 c 2.61,0 4.68,1.89 4.68,4.32 l 0,0 c 0,2.43 -2.07,4.32 -4.68,4.32 l -58.41,0 c -2.61,0 -4.68,-1.89 -4.68,-4.32 l 0,0 c 0,-2.43 2.07,-4.32 4.68,-4.32 l 0,0 z"
         style="fill:#000080;stroke:none" />
      <path
         inkscape:connector-curvature="0"
         id="path3007"
         d="m -1059.955,-507.98782 45.81,55.62 c -22.41,18.54 -34.11,45.45 -34.74,69.84 0,0 -0.72,14.22 -0.27,22.41 l -10.8,0 0,-147.87 z"
         style="fill:#000080;stroke:none" />
      <path
         inkscape:connector-curvature="0"
         id="path3009"
         d="m -1059.955,-343.46782 11.25,0 c 1.44,13.86 4.14,25.74 11.25,39.33 l -22.5,27 0,-66.33 z"
         style="fill:#000080;stroke:none" />
      <path
         inkscape:connector-curvature="0"
         id="path3011"
         d="m -1118.725,-437.51782 -36.18,43.92 c 26.64,32.13 29.52,38.07 32.85,38.07 1.71,0 2.88,-2.7 2.88,-4.41 0,-8.01 -9.36,-17.91 -9.36,-26.64 0,-8.28 7.74,-15.21 15.21,-15.21 19.35,0 28.8,32.04 28.17,41.67 l 2.97,0 c 0.54,-3.78 0.36,-11.7 0.27,-13.59 -1.17,-21.42 -17.37,-59.04 -36.81,-63.81 z"
         style="fill:#000080;stroke:none" />
      <path
         inkscape:connector-curvature="0"
         id="path3013"
         d="m -1001.275,-437.51782 36.18,43.92 c -26.64,32.13 -29.97,38.61 -33.3,38.61 -1.8,0 -2.43,-2.88 -2.43,-4.59 0,-8.01 9.36,-18.27 9.36,-27 0,-8.28 -7.65,-15.21 -15.21,-15.21 -19.26,0 -29.07,31.95 -28.17,41.67 l -2.97,0 c -0.54,-3.78 -0.27,-14.4 -0.18,-16.29 1.26,-23.04 17.28,-56.34 36.72,-61.11 z"
         style="fill:#000080;stroke:none" />
      <path
         inkscape:connector-curvature="0"
         id="path3015"
         d="m -1085.515,-343.46782 2.7,0 c -0.45,6.75 -6.75,23.58 -8.64,22.77 -1.98,-0.63 -1.98,-1.26 -2.16,-2.52 -0.27,-2.34 5.31,-12.69 8.1,-20.25 z"
         style="fill:#000080;stroke:none" />
      <path
         inkscape:connector-curvature="0"
         id="path3017"
         d="m -1034.125,-343.46782 -2.7,0 c 0.54,6.75 6.66,23.04 8.64,22.68 2.16,-0.54 1.89,-1.53 1.89,-2.7 -0.18,-2.34 -4.95,-12.42 -7.83,-19.98 z"
         style="fill:#000080;stroke:none" />
      <path
         inkscape:connector-curvature="0"
         id="path3019"
         d="m -1092.715,-552.62782 c 13.5,0 25.47,3.96 32.76,13.32 7.2,-9.36 19.17,-13.32 32.67,-13.32 10.98,0 19.35,3.96 25.83,8.01 8.37,5.22 18.18,18.27 20.07,33.3 0.54,4.68 0,12.06 0,12.06 -0.27,8.01 -6.75,22.41 -13.5,33.75 -0.36,0.54 6.93,-3.6 14.58,-4.77 3.24,-0.45 9.63,-0.63 10.35,-0.63 25.29,0 47.07,19.26 47.07,45.81 0,10.8 -3.51,24.48 -13.05,31.5 8.82,7.74 13.05,19.62 13.05,32.67 0,24.03 -19.08,44.82 -44.91,45.45 -4.68,0.18 -15.39,1.35 -34.38,-13.23 l 52.83,-64.89 -110.7,-133.56 -110.61,133.56 52.83,64.89 c -16.65,14.58 -29.7,13.32 -34.38,13.23 -24.21,-0.18 -44.82,-21.42 -44.82,-45.45 0,-13.05 4.23,-24.93 12.96,-32.67 -9.54,-7.02 -12.96,-20.7 -12.96,-31.5 0,-26.55 21.69,-45.81 46.98,-45.81 0.81,0 7.11,0.18 10.35,0.63 7.65,1.17 15.03,5.31 14.67,4.77 -6.84,-11.34 -13.32,-25.74 -13.59,-33.75 0,0 -0.54,-7.38 0,-12.06 1.89,-15.03 11.79,-28.08 20.16,-33.3 6.39,-4.05 14.85,-8.01 25.74,-8.01 z"
         style="fill:#ffd500;stroke:none" />
    </g>
  </g>
</svg>
