<?xml version="1.0" standalone="no"?>
<!DOCTYPE svg PUBLIC "-//W3C//DTD SVG 20010904//EN"
 "http://www.w3.org/TR/2001/REC-SVG-20010904/DTD/svg10.dtd">
<svg version="1.0" xmlns="http://www.w3.org/2000/svg"
 width="700.000000pt" height="700.000000pt" viewBox="0 0 700.000000 700.000000"
 preserveAspectRatio="xMidYMid meet">
<metadata>
Created by potrace 1.11, written by Peter Selinger 2001-2013
</metadata>
<g transform="translate(0.000000,700.000000) scale(0.100000,-0.100000)"
fill="#000000" stroke="none">
<path d="M3310 6993 c-409 -28 -752 -103 -1095 -240 -904 -359 -1609 -1064
-1968 -1968 -165 -415 -241 -820 -241 -1285 0 -465 76 -870 241 -1285 355
-892 1045 -1590 1934 -1955 822 -338 1774 -343 2604 -13 1141 453 1966 1471
2164 2673 36 218 45 339 45 580 0 465 -76 870 -241 1285 -428 1075 -1347 1865
-2473 2125 -296 69 -693 103 -970 83z m-327 -598 c170 -13 341 -85 454 -191
l64 -61 59 58 c137 134 333 200 590 200 135 0 229 -18 343 -65 124 -51 202
-101 287 -183 125 -119 227 -291 271 -458 26 -100 35 -273 20 -383 -18 -141
-103 -360 -219 -564 -24 -44 -42 -81 -40 -83 1 -1 36 10 76 27 135 54 222 70
387 71 108 0 172 -5 230 -17 366 -81 645 -352 721 -701 22 -103 22 -303 1
-401 -35 -157 -97 -282 -183 -371 l-54 -55 51 -56 c87 -98 152 -232 186 -386
24 -110 21 -310 -6 -420 -41 -171 -130 -325 -257 -447 -159 -152 -326 -226
-562 -251 -227 -24 -425 37 -660 201 l-83 58 183 224 c100 123 338 416 529
651 l347 426 -1105 1334 c-607 733 -1109 1333 -1114 1333 -5 0 -506 -600
-1113 -1333 l-1104 -1334 416 -511 c229 -282 467 -574 529 -651 l114 -138 -63
-49 c-207 -161 -409 -229 -641 -215 -247 16 -449 108 -618 283 -176 181 -261
390 -261 638 1 248 72 446 214 601 l38 41 -59 62 c-138 143 -212 403 -189 661
36 399 325 716 733 806 58 12 122 17 230 17 165 -1 252 -17 387 -71 40 -17 75
-28 76 -27 2 2 -18 43 -44 92 -122 222 -196 414 -215 554 -15 112 -6 285 20
384 27 102 105 261 169 345 68 89 166 179 248 226 84 49 203 99 270 115 63 14
189 27 234 23 19 -2 70 -6 113 -9z m1028 -1305 c277 -338 521 -636 542 -661
l38 -47 -67 -47 c-333 -232 -596 -660 -689 -1121 -29 -142 -50 -457 -39 -586
6 -74 8 -78 30 -78 l24 0 0 159 c0 183 13 326 41 461 100 484 359 862 721
1050 l86 44 27 -32 c14 -17 208 -253 430 -523 l403 -491 -381 -466 c-210 -256
-410 -494 -443 -529 -54 -55 -66 -63 -99 -63 -52 0 -93 33 -124 99 -24 53 -26
68 -31 251 -5 191 -6 196 -33 243 -37 62 -74 81 -146 74 -100 -11 -173 -87
-175 -184 -1 -47 2 -51 95 -122 42 -32 59 -77 59 -152 0 -69 -20 -121 -57
-147 -13 -9 -33 -24 -45 -33 l-21 -16 30 -64 c33 -71 125 -204 181 -261 33
-34 34 -39 20 -55 -11 -13 -179 -214 -243 -291 -5 -6 -77 113 -121 199 -53
107 -116 292 -133 394 -20 118 -19 115 -47 115 -26 0 -26 -1 -20 -58 20 -167
95 -399 187 -580 60 -117 69 -140 58 -156 -24 -39 -560 -696 -568 -696 -8 0
-546 657 -571 697 -11 16 -5 30 40 98 124 190 210 427 233 642 l6 53 -29 0
c-17 0 -30 -3 -30 -7 0 -5 -9 -48 -19 -98 -36 -165 -115 -361 -204 -498 -79
-122 -59 -125 -183 25 -60 73 -117 143 -128 156 -19 23 -19 24 17 60 74 77
179 238 198 304 7 25 3 31 -35 58 -55 37 -76 81 -76 159 0 75 17 120 59 152
91 69 94 73 94 121 0 99 -74 176 -179 184 -73 6 -113 -15 -146 -78 -20 -39
-23 -61 -28 -233 -5 -186 -6 -191 -35 -250 -44 -87 -116 -127 -174 -95 -24 13
-148 160 -539 642 l-330 407 435 520 435 521 36 -16 c333 -138 643 -573 762
-1067 40 -164 50 -260 50 -459 l0 -168 24 0 c22 0 25 5 32 58 10 80 -3 372
-22 500 -35 238 -84 396 -194 617 -127 258 -308 473 -507 604 l-82 54 42 53
c190 237 1043 1272 1048 1271 4 -1 233 -279 510 -617z"/>
<path d="M3500 4031 l0 -1481 109 0 109 0 1 217 c1 246 13 393 42 538 40 199
133 430 249 620 77 125 151 218 281 347 l126 128 -434 527 c-240 291 -446 541
-459 556 l-24 29 0 -1481z"/>
<path d="M1964 3664 c-197 -240 -360 -439 -361 -442 -2 -4 45 -65 103 -137 58
-71 187 -230 285 -352 99 -122 193 -233 210 -247 66 -56 114 -18 107 82 -3 44
-18 88 -67 192 -116 247 -130 310 -95 414 23 68 99 147 175 181 52 23 72 27
128 23 131 -7 263 -98 359 -246 87 -134 169 -366 179 -504 l6 -78 35 0 34 0
-5 198 c-4 165 -9 214 -30 302 -39 161 -101 331 -177 485 -93 189 -156 282
-269 396 -77 77 -111 103 -172 132 -42 21 -78 37 -81 37 -2 0 -166 -196 -364
-436z"/>
<path d="M4584 4061 c-89 -45 -164 -105 -243 -195 -162 -184 -309 -494 -372
-783 -16 -76 -22 -146 -26 -315 l-5 -218 36 0 36 0 0 59 c0 32 11 103 26 157
71 277 218 500 380 576 60 29 79 33 149 33 65 0 89 -5 129 -25 63 -32 140
-117 160 -176 34 -100 18 -180 -75 -373 -68 -142 -89 -204 -89 -268 0 -39 5
-58 20 -73 38 -38 69 -11 263 230 78 96 202 249 276 340 73 91 138 170 143
177 7 9 -97 142 -353 453 -199 242 -366 440 -370 440 -3 0 -42 -18 -85 -39z"/>
<path d="M2864 2451 c-36 -22 -50 -63 -34 -101 23 -56 11 -55 670 -55 659 0
647 -1 670 55 16 38 2 79 -34 101 -30 18 -59 19 -636 19 -577 0 -606 -1 -636
-19z"/>
<path d="M2908 2026 c-43 -101 -78 -196 -78 -213 0 -33 16 -53 42 -53 33 0
144 273 163 403 7 47 7 47 -21 47 -28 -1 -32 -7 -106 -184z"/>
<path d="M3500 1548 c0 -646 0 -662 19 -643 26 28 415 497 424 511 4 7 -13 54
-37 105 -78 169 -138 384 -167 597 l-12 92 -113 0 -114 0 0 -662z"/>
<path d="M3972 2160 c22 -124 134 -400 162 -400 23 0 39 19 39 47 0 16 -27 96
-60 178 -98 241 -90 225 -122 225 l-28 0 9 -50z"/>
</g>
</svg>
